<svg id="visual" viewBox="0 0 900 600" width="900" height="600" xmlns="http://www.w3.org/2000/svg" xmlns:xlink="http://www.w3.org/1999/xlink" version="1.1"><path d="M0 85L13.7 82C27.3 79 54.7 73 82 76C109.3 79 136.7 91 163.8 90C191 89 218 75 245.2 76C272.3 77 299.7 93 327 111C354.3 129 381.7 149 409 157C436.3 165 463.7 161 491 150C518.3 139 545.7 121 573 108C600.3 95 627.7 87 654.8 91C682 95 709 111 736.2 116C763.3 121 790.7 115 818 119C845.3 123 872.7 137 886.3 144L900 151L900 0L886.3 0C872.7 0 845.3 0 818 0C790.7 0 763.3 0 736.2 0C709 0 682 0 654.8 0C627.7 0 600.3 0 573 0C545.7 0 518.3 0 491 0C463.7 0 436.3 0 409 0C381.7 0 354.3 0 327 0C299.7 0 272.3 0 245.2 0C218 0 191 0 163.8 0C136.7 0 109.3 0 82 0C54.7 0 27.3 0 13.7 0L0 0Z" fill="#95a1f4"></path><path d="M0 205L13.7 198C27.3 191 54.7 177 82 167C109.3 157 136.7 151 163.8 151C191 151 218 157 245.2 168C272.3 179 299.7 195 327 204C354.3 213 381.7 215 409 227C436.3 239 463.7 261 491 264C518.3 267 545.7 251 573 234C600.3 217 627.7 199 654.8 188C682 177 709 173 736.2 180C763.3 187 790.7 205 818 218C845.3 231 872.7 239 886.3 243L900 247L900 149L886.3 142C872.7 135 845.3 121 818 117C790.7 113 763.3 119 736.2 114C709 109 682 93 654.8 89C627.7 85 600.3 93 573 106C545.7 119 518.3 137 491 148C463.7 159 436.3 163 409 155C381.7 147 354.3 127 327 109C299.7 91 272.3 75 245.2 74C218 73 191 87 163.8 88C136.7 89 109.3 77 82 74C54.7 71 27.3 77 13.7 80L0 83Z" fill="#7b8df0"></path><path d="M0 349L13.7 346C27.3 343 54.7 337 82 342C109.3 347 136.7 363 163.8 372C191 381 218 383 245.2 382C272.3 381 299.7 377 327 366C354.3 355 381.7 337 409 339C436.3 341 463.7 363 491 363C518.3 363 545.7 341 573 326C600.3 311 627.7 303 654.8 305C682 307 709 319 736.2 337C763.3 355 790.7 379 818 394C845.3 409 872.7 415 886.3 418L900 421L900 245L886.3 241C872.7 237 845.3 229 818 216C790.7 203 763.3 185 736.2 178C709 171 682 175 654.8 186C627.7 197 600.3 215 573 232C545.7 249 518.3 265 491 262C463.7 259 436.3 237 409 225C381.7 213 354.3 211 327 202C299.7 193 272.3 177 245.2 166C218 155 191 149 163.8 149C136.7 149 109.3 155 82 165C54.7 175 27.3 189 13.7 196L0 203Z" fill="#5f79ec"></path><path d="M0 565L13.7 557C27.3 549 54.7 533 82 523C109.3 513 136.7 509 163.8 508C191 507 218 509 245.2 509C272.3 509 299.7 507 327 514C354.3 521 381.7 537 409 547C436.3 557 463.7 561 491 562C518.3 563 545.7 561 573 557C600.3 553 627.7 547 654.8 537C682 527 709 513 736.2 510C763.3 507 790.7 515 818 520C845.3 525 872.7 527 886.3 528L900 529L900 419L886.3 416C872.7 413 845.3 407 818 392C790.7 377 763.3 353 736.2 335C709 317 682 305 654.8 303C627.7 301 600.3 309 573 324C545.7 339 518.3 361 491 361C463.7 361 436.3 339 409 337C381.7 335 354.3 353 327 364C299.7 375 272.3 379 245.2 380C218 381 191 379 163.8 370C136.7 361 109.3 345 82 340C54.7 335 27.3 341 13.7 344L0 347Z" fill="#5267cf"></path><path d="M0 601L13.7 601C27.3 601 54.7 601 82 601C109.3 601 136.7 601 163.8 601C191 601 218 601 245.2 601C272.3 601 299.7 601 327 601C354.3 601 381.7 601 409 601C436.3 601 463.7 601 491 601C518.3 601 545.7 601 573 601C600.3 601 627.7 601 654.8 601C682 601 709 601 736.2 601C763.3 601 790.7 601 818 601C845.3 601 872.7 601 886.3 601L900 601L900 527L886.3 526C872.7 525 845.3 523 818 518C790.7 513 763.3 505 736.2 508C709 511 682 525 654.8 535C627.7 545 600.3 551 573 555C545.7 559 518.3 561 491 560C463.7 559 436.3 555 409 545C381.7 535 354.3 519 327 512C299.7 505 272.3 507 245.2 507C218 507 191 505 163.8 506C136.7 507 109.3 511 82 521C54.7 531 27.3 547 13.7 555L0 563Z" fill="#4455b2"></path></svg>